<svg xmlns="http://www.w3.org/2000/svg" viewBox="0 0 438.07 424.65"><defs><style>.cls-1{fill:#fff;}</style></defs><title>Asset 4</title><g id="Layer_2" data-name="Layer 2"><g id="Layer_1-2" data-name="Layer 1"><path class="cls-1" d="M224.35,424.65c-46.14,0-84.31-8.67-119.23-29C45,360.55,10.56,307.89,1.85,239-5.13,184,7.64,133.21,40.1,88c33.42-46.6,79.35-73.83,135.32-83.83,41.79-7.46,83.31-5.29,123.21,10.22C369.58,42,416.07,92.53,432.74,167c24.72,110.38-38.31,220.08-154.18,250.49A231.27,231.27,0,0,1,224.35,424.65Zm-6.5-199.21c-37.21,0-74.43.17-111.64-.14-7.95-.07-12.81,3.07-15.65,10a70,70,0,0,0-3.35,9.91c-2.71,11.17-2,22.35.87,33.34,8.3,31.93,28.28,54.52,57,69.77,19.51,10.37,40.65,14.93,62.6,16,28.64,1.34,56.39-2.44,82.07-15.91,27.48-14.43,47.07-35.92,56.05-66.09,4.43-14.9,5.39-30-.53-44.79-4.14-10.38-6.78-12.08-18-12.08Zm-80.24-41.2c19.24.08,35.39-15.32,35-34.39-.41-22.16-17.74-34.84-34.6-35a34.68,34.68,0,1,0-.43,69.35Zm159.62,0a34.57,34.57,0,0,0,34.57-34.8,34.78,34.78,0,1,0-34.57,34.8Z"/><path class="cls-1" d="M213.18,351.86a127.15,127.15,0,0,1-53.29-12.36c-11.4-5.48-16.44-18.37-11.67-29.64,2.56-6,6.87-10.55,13.31-12.2,4.8-1.23,9.81-2.35,14.71-2.29,31.18.38,62.36,1.46,93.54,1.52,11.38,0,21.88,12.31,21.89,21.57,0,8.19-2.58,14.32-10.35,18.25C261.11,347,239.75,351.9,213.18,351.86Z"/><path class="cls-1" d="M217.09,267.17q-49.44,0-98.89,0c-11,0-16-5.88-14.38-16.54,1.1-7,4.91-10.48,12.06-10.83,1.75-.09,3.5,0,5.25,0H313.66c1.5,0,3,0,4.5,0,7,.21,10,2.18,12.11,7.91,2.26,6.16,1.63,12.21-3.18,16.59-2.23,2-6.34,2.73-9.62,2.77-18.47.25-37,.13-55.43.13Z"/></g></g></svg>